<?xml version="1.0" standalone="no"?>
<!DOCTYPE svg PUBLIC "-//W3C//DTD SVG 1.1//EN" "http://www.w3.org/Graphics/SVG/1.1/DTD/svg11.dtd" >
<svg xmlns="http://www.w3.org/2000/svg">
<metadata></metadata>
<defs>
<font id="camptonlight" horiz-adv-x="1228" >
<font-face units-per-em="2048" ascent="1542" descent="-506" />
<missing-glyph horiz-adv-x="555" />
<glyph horiz-adv-x="0" />
<glyph horiz-adv-x="682" />
<glyph unicode=" "  horiz-adv-x="555" />
<glyph unicode="&#x09;" horiz-adv-x="555" />
<glyph unicode="&#xa0;" horiz-adv-x="555" />
<glyph unicode="!" horiz-adv-x="538" d="M172 78q2 39 28.5 65.5t67.5 26.5t69 -26.5t30 -65.5q2 -58 -48 -82t-100 0t-47 82zM195 1393h147l-10 -1014h-127z" />
<glyph unicode="&#x22;" horiz-adv-x="651" d="M113 844v549h123v-549h-123zM416 844v549h123v-549h-123z" />
<glyph unicode="#" horiz-adv-x="1507" d="M84 408v122h258l100 320h-245v123h284l131 422h146l-133 -422h419l132 422h145l-133 -422h233v-123h-270l-100 -320h258v-122h-297l-127 -408h-146l129 408h-419l-127 -408h-146l129 408h-221zM487 530h418l101 320h-418z" />
<glyph unicode="$" horiz-adv-x="1351" d="M121 444h143q26 -165 140 -254.5t303 -89.5q166 0 265 75t99 200q0 94 -65 152t-197 85l-242 47q-190 37 -287.5 129.5t-97.5 235.5q0 174 125 281q127 109 332 118v248h129v-252q189 -21 308.5 -125t142.5 -278h-144q-25 135 -123 207.5t-266 72.5q-160 0 -255 -71.5 t-95 -192.5q0 -93 70.5 -151t214.5 -86l210 -41q388 -74 388 -363q0 -177 -123 -291t-328 -129v-239h-129v239q-226 17 -360.5 139.5t-157.5 333.5z" />
<glyph unicode="%" horiz-adv-x="2220" d="M186 1036q0 169 111 277q110 110 274 110q165 0 275 -110q110 -107 110 -277q0 -168 -110 -278q-112 -109 -275 -109q-162 0 -274 109q-111 111 -111 278zM297 1036q0 -120 80 -200t194 -80q115 0 195 80t80 200q0 121 -80 201t-195 80q-114 0 -194 -80t-80 -201zM584 0 l927 1393h109l-928 -1393h-108zM1266 358q0 170 110 277q111 108 275 108q163 0 274 -108t111 -277t-111 -280q-112 -109 -274 -109q-163 0 -275 109q-110 110 -110 280zM1376 358q0 -119 80 -202q80 -80 195 -80q114 0 194 80q80 83 80 202q0 122 -80 199q-80 80 -194 80 q-115 0 -195 -80q-80 -77 -80 -199z" />
<glyph unicode="&#x26;" horiz-adv-x="1495" d="M109 381q0 132 78 234.5t210 154.5q-133 148 -133 291q0 158 111 260q114 102 287 102q166 0 273 -97.5t126 -268.5h-139q-13 114 -83.5 176.5t-176.5 62.5q-112 0 -183 -66.5t-71 -172.5q0 -62 19 -109.5t79 -107.5l104 -107l166 -145l262 -234l224 320h147l-268 -391 l-8 -13l301 -270h-189l-192 172q-187 -199 -455 -199q-222 0 -356 113q-133 115 -133 295zM246 383q0 -123 98 -205q100 -80 256 -80q203 0 358 158l-299 266q-31 29 -90.5 82t-81.5 74q-112 -42 -176.5 -119.5t-64.5 -175.5z" />
<glyph unicode="'" horiz-adv-x="348" d="M113 844v549h123v-549h-123z" />
<glyph unicode="(" horiz-adv-x="708" d="M135 623q0 541 408 870l88 -92q-182 -163 -268.5 -347.5t-86.5 -430.5t86.5 -431t268.5 -350l-88 -92q-408 329 -408 873z" />
<glyph unicode=")" horiz-adv-x="708" d="M76 -158q183 164 269.5 349.5t86.5 431.5t-86.5 430.5t-269.5 347.5l88 92q409 -329 409 -870t-409 -873z" />
<glyph unicode="*" horiz-adv-x="821" d="M104 958l224 136l-224 131l43 75l220 -131v232h86v-232l221 131l43 -75l-223 -131l223 -136l-43 -71l-221 129v-236h-86v236l-220 -129z" />
<glyph unicode="+" horiz-adv-x="1419" d="M240 596v131h403v397h137v-397h402v-131h-402v-397h-137v397h-403z" />
<glyph unicode="," horiz-adv-x="399" d="M84 -283l102 273q-63 18 -63 78q0 39 27.5 66.5t68.5 27.5t68.5 -27.5t27.5 -66.5q0 -21 -30 -93l-111 -258h-90z" />
<glyph unicode="-" horiz-adv-x="1153" d="M240 485v142h673v-142h-673z" />
<glyph unicode="." horiz-adv-x="362" d="M84 68q0 38 29 66t67 28q41 0 70 -28t29 -66q0 -39 -29 -67t-70 -28q-38 0 -67 28.5t-29 66.5z" />
<glyph unicode="/" horiz-adv-x="825" d="M98 -328l545 1823h135l-545 -1823h-135z" />
<glyph unicode="0" horiz-adv-x="1468" d="M135 696q0 326 160 527q159 200 440 200q282 0 441 -200q159 -199 159 -527t-159 -528q-159 -199 -441 -199q-281 0 -440 199q-160 201 -160 528zM281 696q0 -271 118 -432q120 -164 336 -164q212 0 332 164q121 165 121 432t-121 432q-120 164 -332 164 q-216 0 -336 -164q-118 -161 -118 -432z" />
<glyph unicode="1" horiz-adv-x="1036" d="M100 0v121h398v1110l-373 -129v127l436 164h80v-1272h367v-121h-908z" />
<glyph unicode="2" horiz-adv-x="1144" d="M84 1016q9 184 135 295q124 112 332 112q214 0 338 -118q127 -121 127 -297q0 -120 -72 -230q-65 -100 -248 -289l-352 -368h698v-121h-915v76l448 477q24 25 64 66.5t61.5 64.5t36.5 41q53 59 92 133q41 77 41 150q0 127 -84.5 207.5t-228.5 80.5q-135 0 -224 -75.5 t-106 -204.5h-143z" />
<glyph unicode="3" horiz-adv-x="1153" d="M94 340h142q19 -114 110.5 -178t239.5 -64q149 0 242.5 76t93.5 197q0 123 -90 196.5t-240 73.5h-115v119h115q129 0 208 72.5t79 191.5q0 123 -83.5 196.5t-220.5 73.5q-125 0 -207.5 -64t-95.5 -173h-141q13 164 133.5 263t306.5 99q202 0 323.5 -108t121.5 -287 q0 -222 -191 -317q234 -94 234 -336q0 -174 -131 -287q-132 -111 -342 -111q-212 0 -342.5 99t-149.5 268z" />
<glyph unicode="4" horiz-adv-x="1316" d="M109 307v88l423 998h150l-403 -961h579v453h139v-453h226v-125h-226v-307h-139v307h-749z" />
<glyph unicode="5" horiz-adv-x="1198" d="M76 371h143q31 -133 126.5 -205t248.5 -72q152 0 256 96q100 93 100 238q0 136 -97 220t-257 83l-401 -2l2 664h819v-129h-686v-408h282q213 0 344 -119t131 -307q0 -197 -139 -330q-137 -131 -354 -131q-213 0 -349 107t-169 295z" />
<glyph unicode="6" horiz-adv-x="1259" d="M115 451q0 162 112 321l441 621h172l-336 -478q68 15 127 15q221 0 366 -133q146 -134 146 -342q0 -209 -146 -349q-143 -137 -368 -137t-369 135q-145 139 -145 347zM258 446q0 -157 104 -258q103 -100 267 -100q163 0 266 100q104 101 104 261q0 152 -104 253t-266 101 q-169 0 -273 -98l-10 -15q-88 -125 -88 -244z" />
<glyph unicode="7" horiz-adv-x="1028" d="M33 1257v136h950v-88l-645 -1305h-164l625 1257h-766z" />
<glyph unicode="8" horiz-adv-x="1273" d="M115 383q0 123 72 214.5t204 139.5q-215 89 -215 307q0 163 129 271q132 108 332 108q201 0 330 -108q131 -107 131 -271q0 -218 -215 -307q131 -48 202.5 -139t71.5 -215q0 -186 -143 -299q-142 -115 -377 -115q-234 0 -379 115q-143 113 -143 299zM272 391 q0 -131 102 -216t263 -85q160 0 262 85t102 216q0 125 -101.5 205t-262.5 80t-264 -80q-101 -76 -101 -205zM317 1038q0 -118 89 -190t231 -72q141 0 230 72t89 190q0 111 -92 191q-93 80 -227 80q-139 0 -229 -78q-91 -79 -91 -193z" />
<glyph unicode="9" horiz-adv-x="1259" d="M117 938q0 211 143 348t371 137q225 0 368 -137q146 -137 146 -344q0 -160 -113 -321l-440 -621h-172l336 477q-63 -14 -127 -14q-224 0 -369 133q-143 131 -143 342zM260 944q0 -152 105 -254q103 -100 266 -100q168 0 272 98l10 14q88 125 88 244q0 155 -104 256 q-106 103 -266 103t-266 -103q-105 -102 -105 -258z" />
<glyph unicode=":" horiz-adv-x="362" d="M84 877q0 38 29 66t67 28q41 0 70 -28t29 -66q0 -39 -29 -67t-70 -28q-38 0 -67 28.5t-29 66.5zM85 68q0 39 26 65q29 29 70 29t67 -29q29 -26 29 -65t-29 -68q-26 -26 -67 -26t-70 26q-26 29 -26 68z" />
<glyph unicode=";" horiz-adv-x="376" d="M55 -283l101 273q-62 18 -62 78q0 39 26.5 66.5t67.5 27.5q42 0 69.5 -26.5t27.5 -67.5q0 -22 -29 -93l-111 -258h-90zM93 877q0 39 26 65q29 29 70 29t67 -29q29 -26 29 -65t-29 -68q-26 -26 -67 -26t-70 26q-26 29 -26 68z" />
<glyph unicode="&#x3c;" horiz-adv-x="1132" d="M115 547v143l864 412v-141l-711 -343l711 -342v-141z" />
<glyph unicode="=" horiz-adv-x="1466" d="M240 403v132h987v-132h-987zM240 801v131h987v-131h-987z" />
<glyph unicode="&#x3e;" horiz-adv-x="1132" d="M156 135v141l708 342l-708 343v141l864 -412v-143z" />
<glyph unicode="?" horiz-adv-x="1161" d="M104 1063q25 161 143.5 258.5t291.5 97.5q195 0 327 -123q131 -122 131 -305q0 -176 -116 -289q-114 -111 -310 -120l-4 -195h-114l-13 297h90q144 0 236 86q94 88 94 219q0 132 -88 217q-88 88 -227 88q-109 0 -193 -64.5t-104 -166.5h-144zM412 78q-4 56 46 79.5t100 0 t46 -79.5q4 -58 -46 -82t-100 0t-46 82z" />
<glyph unicode="@" horiz-adv-x="2027" d="M158 485q3 357 252 594q252 240 608 240q359 0 604 -236q248 -236 248 -579q0 -196 -85.5 -313t-242.5 -117q-182 0 -244 141q-117 -147 -311 -147q-171 0 -285 114t-114 291q0 175 114 289q115 115 285 115q162 0 277 -109v80h127v-442q0 -224 151 -224q103 0 161 86.5 t58 231.5q0 301 -217 506q-217 208 -526 208t-531 -213q-219 -213 -219 -516q0 -305 219 -518q220 -211 527 -211q273 0 477 168l61 -90q-224 -176 -536 -182q-136 -2 -266.5 39t-237 117.5t-187.5 179t-125 231.5t-42 266zM717 473q0 -130 84 -211q83 -80 205 -80 q164 0 264 146q-6 50 -6 102v197q-94 137 -258 137q-120 0 -205 -82q-84 -81 -84 -209z" />
<glyph unicode="A" horiz-adv-x="1527" d="M63 0l631 1403h140l630 -1403h-155l-181 406h-729l-180 -406h-156zM459 539h610l-305 688z" />
<glyph unicode="B" horiz-adv-x="1429" d="M197 0v1393h587q208 0 329.5 -95.5t121.5 -255.5q0 -119 -64 -204t-180 -117q153 -24 235.5 -114.5t82.5 -227.5q0 -168 -140 -275q-137 -104 -370 -104h-602zM342 129h451q169 0 269.5 73.5t100.5 192.5q0 118 -96 182t-270 64h-455v-512zM342 770h406q166 0 257 67 t91 189q0 109 -87.5 173.5t-238.5 64.5h-428v-494z" />
<glyph unicode="C" horiz-adv-x="1654" d="M135 696q0 305 209 514q211 211 514 211q252 0 432 -143q180 -140 230 -375h-150q-45 174 -181.5 276.5t-330.5 102.5q-244 0 -412 -168q-165 -168 -165 -418q0 -249 165 -417q168 -168 412 -168q194 0 330.5 102t181.5 276h150q-49 -233 -230 -376q-183 -142 -432 -142 q-305 0 -514 209t-209 516z" />
<glyph unicode="D" horiz-adv-x="1538" d="M197 0v1393h483q321 0 526 -193q207 -195 207 -493q0 -311 -205 -510q-206 -197 -528 -197h-483zM342 133h338q255 0 420 160q164 164 164 414q0 241 -164 397q-163 156 -420 156h-338v-1127z" />
<glyph unicode="E" horiz-adv-x="1294" d="M197 0v1393h966v-133h-821v-500h739v-135h-739v-492h821v-133h-966z" />
<glyph unicode="F" horiz-adv-x="1222" d="M197 0v1393h950v-133h-805v-535h717v-135h-717v-590h-145z" />
<glyph unicode="G" horiz-adv-x="1703" d="M135 688q0 311 211 522t518 211q235 0 418 -131q184 -131 242 -356h-158q-49 164 -190 256q-143 92 -310 92q-247 0 -417 -170q-168 -168 -168 -424q0 -238 163 -407q162 -168 410 -168q214 0 352 135q141 138 168 348h-532v133h684l-2 -33h2v-696h-119l-12 297 q-76 -156 -215 -241t-326 -85q-306 0 -512 209q-207 213 -207 508z" />
<glyph unicode="H" horiz-adv-x="1525" d="M197 0v1393h145v-637h842v637h145v-1393h-145v623h-842v-623h-145z" />
<glyph unicode="I" horiz-adv-x="536" d="M197 0v1393h145v-1393h-145z" />
<glyph unicode="J" horiz-adv-x="1218" d="M43 397h147q20 -137 115.5 -215t241.5 -78q157 0 252.5 108.5t95.5 291.5v889h147v-891q0 -249 -135 -391t-368 -142q-202 0 -336 115.5t-160 312.5z" />
<glyph unicode="K" horiz-adv-x="1441" d="M197 0v1393h145v-828l799 828h178l-602 -635l676 -758h-187l-592 651l-272 -286v-365h-145z" />
<glyph unicode="L" horiz-adv-x="1183" d="M197 0v1393h145v-1262h776v-131h-921z" />
<glyph unicode="M" horiz-adv-x="1738" d="M197 0v1393h112l561 -942l562 942h110v-1393h-145l2 1077l-479 -803h-99l-483 805l4 -1079h-145z" />
<glyph unicode="N" horiz-adv-x="1572" d="M197 0v1393h118l916 -1143v1143h145v-1393h-125l-909 1128v-1128h-145z" />
<glyph unicode="O" horiz-adv-x="1718" d="M135 696q0 301 211 512q213 213 514 213q299 0 512 -213t213 -512q0 -301 -213 -514q-211 -211 -512 -211q-303 0 -514 211t-211 514zM281 696q0 -243 168 -417q170 -173 411 -173q240 0 410 173q168 174 168 417q0 245 -168 416q-168 174 -410 174q-243 0 -411 -174 q-168 -171 -168 -416z" />
<glyph unicode="P" horiz-adv-x="1294" d="M197 0v1393h485q240 0 385 -127q147 -126 147 -334q0 -211 -151 -344q-150 -129 -399 -129h-322v-459h-145zM342 592h334q180 0 287 94q108 94 108 246q0 148 -108.5 238t-286.5 90h-334v-668z" />
<glyph unicode="Q" horiz-adv-x="1718" d="M135 696q0 301 211 512q213 213 514 213q299 0 512 -213t213 -512q0 -193 -93.5 -357.5t-254.5 -262.5l260 -322l-106 -98l-289 356q-118 -41 -242 -41q-303 0 -514 211t-211 514zM281 696q0 -243 168 -417q170 -173 409 -173q242 0 412 173q168 174 168 417 q0 245 -168 416q-168 174 -412 174q-241 0 -409 -174q-168 -171 -168 -416z" />
<glyph unicode="R" horiz-adv-x="1380" d="M197 0v1393h518q235 0 383 -121q147 -120 147 -324q0 -166 -103.5 -280.5t-283.5 -149.5l447 -518h-183l-434 506h-346v-506h-145zM342 639h369q174 0 281.5 84.5t107.5 224.5q0 142 -107.5 227t-281.5 85h-369v-621z" />
<glyph unicode="S" horiz-adv-x="1351" d="M121 444h143q26 -165 140 -254.5t303 -89.5q165 0 263.5 75t98.5 200q0 94 -65 152t-197 85l-242 47q-190 37 -287.5 129.5t-97.5 235.5q0 181 135 289q137 110 361 110q219 0 368 -104q151 -106 175 -303h-144q-25 136 -123.5 208t-267.5 72q-160 0 -255 -71.5 t-95 -192.5q0 -93 71.5 -151t215.5 -86l210 -41q388 -74 388 -363q0 -190 -144 -307q-142 -115 -375 -115q-250 0 -402 124.5t-177 350.5z" />
<glyph unicode="T" horiz-adv-x="1300" d="M59 1260v133h1182v-133h-518v-1260h-145v1260h-519z" />
<glyph unicode="U" horiz-adv-x="1536" d="M176 592v801h146v-801q0 -213 122 -350q126 -138 324 -138t324 138q125 137 125 350v801h143v-801q0 -275 -164 -451q-163 -172 -428 -172q-267 0 -430 172q-162 174 -162 451z" />
<glyph unicode="V" horiz-adv-x="1525" d="M53 1393h160l551 -1209l551 1209h160l-644 -1403h-135z" />
<glyph unicode="W" horiz-adv-x="2183" d="M84 1393h154l395 -1184l395 1184h127l395 -1182l396 1182h151l-475 -1403h-143l-387 1149l-390 -1149h-141z" />
<glyph unicode="X" horiz-adv-x="1353" d="M51 0l531 692l-514 701h178l432 -586l430 586h178l-514 -701l531 -692h-170l-455 582l-457 -582h-170z" />
<glyph unicode="Y" horiz-adv-x="1359" d="M31 1393h162l487 -760l487 760h162l-575 -895v-498h-146v498z" />
<glyph unicode="Z" horiz-adv-x="1339" d="M123 0v76l872 1184h-845v133h1054v-76l-856 -1184h860v-133h-1085z" />
<glyph unicode="[" horiz-adv-x="700" d="M180 -252v1747h422v-133h-280v-1479h280v-135h-422z" />
<glyph unicode="\" horiz-adv-x="825" d="M72 1495h137l545 -1823h-138z" />
<glyph unicode="]" horiz-adv-x="700" d="M68 -117h282v1479h-282v133h421v-1747h-421v135z" />
<glyph unicode="^" horiz-adv-x="804" d="M63 913l277 480h125l276 -480h-131l-207 371l-208 -371h-132z" />
<glyph unicode="_" horiz-adv-x="1333" d="M84 -264h1163v-123h-1163v123z" />
<glyph unicode="`" d="M424 1446h156l165 -291h-131z" />
<glyph unicode="a" horiz-adv-x="1267" d="M123 473q0 209 143 352q146 146 346 146q205 0 342 -131v106h142v-946h-142v104q-137 -131 -342 -131q-200 0 -346 146q-143 143 -143 354zM264 473q0 -155 105 -266q108 -111 262 -111q203 0 323 172v408q-120 172 -323 172q-154 0 -262 -111q-105 -111 -105 -264z" />
<glyph unicode="b" horiz-adv-x="1267" d="M172 0v1454h139v-614q137 131 344 131q200 0 346 -146q144 -144 144 -352t-144 -352q-146 -146 -346 -146q-207 0 -344 131v-106h-139zM311 274q120 -176 326 -176q152 0 260 111q107 110 107 264q0 156 -107 266q-108 111 -260 111q-206 0 -326 -178v-398z" />
<glyph unicode="c" horiz-adv-x="1183" d="M123 473q0 209 139 354q141 144 354 144q167 0 293 -97q125 -96 152 -245h-146q-23 97 -103.5 155t-195.5 58q-156 0 -254 -107t-98 -262q0 -157 98 -264t254 -107q115 0 195.5 58t103.5 155h146q-27 -151 -152 -247q-124 -95 -293 -95q-213 0 -354 144 q-139 145 -139 356z" />
<glyph unicode="d" horiz-adv-x="1267" d="M123 473q0 209 143 352q146 146 346 146q207 0 342 -129v612h142v-1454h-142v104q-135 -129 -342 -129q-200 0 -346 146q-143 143 -143 352zM264 473q0 -153 105 -264q108 -111 262 -111q203 0 323 172v406q-119 174 -323 174q-154 0 -262 -111q-105 -111 -105 -266z" />
<glyph unicode="e" horiz-adv-x="1198" d="M123 473q0 211 137 354q138 144 354 144q199 0 330 -140q128 -137 131 -354q0 -47 -2 -59l-8 4v-4h-801q18 -144 113 -234t241 -90q204 0 275 146h151q-41 -122 -158 -194.5t-272 -72.5q-216 0 -354 144q-137 143 -137 356zM264 526h670q-12 147 -100 235.5t-224 88.5 q-142 0 -237 -92q-94 -94 -109 -232z" />
<glyph unicode="f" horiz-adv-x="815" d="M8 825v121h277v248q0 161 92 258.5t244 97.5q91 0 194 -28l-20 -121q-81 20 -152 20q-100 0 -159.5 -62t-59.5 -165v-248h381v-121h-381v-825h-139v825h-277z" />
<glyph unicode="g" horiz-adv-x="1271" d="M115 485q0 213 137 353q138 141 342 141q213 0 354 -135v102h139v-977q0 -215 -131 -340q-130 -127 -340 -127q-182 0 -311 99q-128 98 -155 254h145q20 -101 107.5 -162.5t213.5 -61.5q150 0 241 92t91 246v166q-141 -135 -354 -135q-204 0 -342 141q-137 143 -137 344z M256 485q0 -150 100 -256t254 -106q218 0 338 178v377q-120 178 -338 178q-154 0 -254 -106t-100 -265z" />
<glyph unicode="h" horiz-adv-x="1196" d="M172 0v1454h139v-620q137 143 351 143q177 0 290 -119t113 -313v-545h-141v539q0 145 -77.5 227t-209.5 82q-197 0 -326 -176v-672h-139z" />
<glyph unicode="i" horiz-adv-x="544" d="M176 1305q2 41 28.5 67.5t67.5 26.5q40 0 67.5 -27.5t29.5 -66.5v-6q0 -53 -47 -76q-25 -12 -50 -12q-26 0 -50 12q-47 23 -46 75v7zM203 0v946h141v-946h-141z" />
<glyph unicode="j" horiz-adv-x="526" d="M-35 -250q123 4 171 60.5t48 193.5v942h142v-928q0 -207 -79.5 -298.5t-271.5 -92.5zM158 1305q2 39 29 66.5t67 27.5q41 0 67.5 -26.5t28.5 -67.5v-7q0 -52 -46 -75q-25 -12 -50 -12l-50 12q-46 23 -46 75v7z" />
<glyph unicode="k" horiz-adv-x="1155" d="M184 0v1454h140v-1010l532 502h180l-411 -397l489 -549h-182l-408 453l-200 -193v-260h-140z" />
<glyph unicode="l" horiz-adv-x="483" d="M172 0v1454h139v-1454h-139z" />
<glyph unicode="m" horiz-adv-x="1851" d="M172 0v946h139v-106q125 137 316 137q217 0 325 -176q144 176 379 176q173 0 279 -118t106 -314v-545h-139v539q0 147 -71 228t-199 81q-195 0 -303 -182q12 -56 12 -121v-545h-142v539q0 147 -71.5 228t-200.5 81q-177 0 -291 -172v-676h-139z" />
<glyph unicode="n" horiz-adv-x="1196" d="M172 0v946h139v-112q137 143 351 143q177 0 290 -119t113 -313v-545h-141v539q0 145 -77.5 227t-209.5 82q-197 0 -326 -176v-672h-139z" />
<glyph unicode="o" horiz-adv-x="1251" d="M123 473q0 209 145 354q144 144 359 144q212 0 356 -144q145 -145 145 -354q0 -213 -145 -358q-146 -146 -356 -146q-213 0 -359 146q-145 145 -145 358zM264 473q0 -157 105 -268q106 -109 258 -109q153 0 256 109q104 110 104 268q0 153 -104 260q-106 109 -256 109 q-152 0 -258 -109q-105 -108 -105 -260z" />
<glyph unicode="p" horiz-adv-x="1267" d="M172 -508v1454h139v-108q139 133 344 133q200 0 346 -146q144 -144 144 -352q0 -210 -144 -354q-146 -146 -346 -146q-205 0 -344 133v-614h-139zM311 272q120 -176 326 -176q152 0 260 111q107 110 107 266q0 154 -107 264q-108 111 -260 111q-206 0 -326 -176v-400z " />
<glyph unicode="q" horiz-adv-x="1267" d="M123 473q0 209 143 352q146 146 346 146q205 0 342 -131v106h142v-1454h-142v612q-137 -131 -342 -131q-200 0 -346 146q-143 143 -143 354zM264 473q0 -155 105 -266q108 -111 262 -111q203 0 323 172v408q-120 172 -323 172q-154 0 -262 -111q-105 -111 -105 -264z" />
<glyph unicode="r" horiz-adv-x="735" d="M172 0v946h139v-164q139 189 371 189v-133q-237 -6 -371 -220v-618h-139z" />
<glyph unicode="s" horiz-adv-x="1079" d="M109 293h131q47 -207 311 -207q117 0 188.5 46.5t71.5 121.5q0 60 -43.5 98.5t-120.5 50.5l-217 37q-280 47 -280 254q0 127 104 204t276 77q158 0 279 -76q119 -76 131 -225h-131q-12 92 -84.5 140t-194.5 48q-109 0 -175 -43.5t-66 -113.5q0 -59 45.5 -95t140.5 -53 l189 -33q282 -50 282 -262q0 -134 -109.5 -213.5t-287.5 -79.5q-190 0 -305 83.5t-135 240.5z" />
<glyph unicode="t" horiz-adv-x="880" d="M6 825v121h252v350h139v-350h359v-121h-359v-485q0 -127 51 -184.5t162 -57.5q66 0 158 25l23 -121q-109 -33 -205 -33q-328 0 -328 371v485h-252z" />
<glyph unicode="u" horiz-adv-x="1196" d="M131 399v547h139v-538q0 -146 78.5 -229t210.5 -83q92 0 177.5 46t146.5 130v674h139v-946h-139v111q-142 -142 -348 -142q-179 0 -293 117q-111 117 -111 313z" />
<glyph unicode="v" horiz-adv-x="1173" d="M72 946h149l365 -768l364 768h152l-451 -946h-129z" />
<glyph unicode="w" horiz-adv-x="1595" d="M72 946h151l266 -727l248 727h123l246 -725l266 725h152l-357 -946h-127l-241 721l-244 -721h-127z" />
<glyph unicode="x" horiz-adv-x="1095" d="M66 0l389 473l-381 473h172l301 -371l305 371h172l-383 -473l389 -473h-170l-311 377l-316 -377h-167z" />
<glyph unicode="y" horiz-adv-x="1212" d="M45 946h152l405 -833l381 833h150l-664 -1454h-150l209 459z" />
<glyph unicode="z" horiz-adv-x="1009" d="M98 0v72l613 753h-590v121h790v-82l-606 -745h606v-119h-813z" />
<glyph unicode="{" horiz-adv-x="729" d="M80 567v125q114 0 160.5 47.5t46.5 173.5v254q0 161 95.5 260t250.5 99v-135q-93 0 -150 -62t-57 -162v-258q0 -123 -33 -186t-117 -92q84 -29 117 -92.5t33 -188.5v-258q0 -100 57 -161.5t150 -61.5v-135q-155 0 -250.5 98.5t-95.5 259.5v256q0 123 -46.5 171t-160.5 48 z" />
<glyph unicode="|" horiz-adv-x="636" d="M252 -328v1823h133v-1823h-133z" />
<glyph unicode="}" horiz-adv-x="741" d="M111 -131q93 0 149.5 61.5t56.5 161.5v258q0 125 32.5 188.5t115.5 92.5q-84 29 -116 91t-32 187v258q0 100 -56.5 162t-149.5 62v135q155 0 250.5 -99t95.5 -260v-254q0 -126 45 -173.5t162 -47.5v-125q-116 0 -161.5 -47.5t-45.5 -171.5v-256q0 -161 -95.5 -259.5 t-250.5 -98.5v135z" />
<glyph unicode="~" horiz-adv-x="937" d="M100 623q0 81 35 136t85.5 74.5t106 15.5t97.5 -32l131 -88q57 -39 108.5 -14t51.5 94h123q0 -81 -34.5 -136.5t-84.5 -76t-105.5 -16.5t-99.5 34l-129 88q-57 39 -108.5 14t-51.5 -93h-125z" />
<glyph unicode="&#xa2;" horiz-adv-x="1183" d="M123 473q0 197 119 334q121 139 311 160v260h129v-260q148 -19 250.5 -110.5t128.5 -227.5h-146q-23 97 -103.5 155t-195.5 58q-156 0 -254 -107t-98 -262q0 -157 98 -264t254 -107q115 0 195.5 58t103.5 155h146q-26 -136 -128.5 -227.5t-250.5 -110.5v-235h-129v235 q-190 21 -311 160q-119 137 -119 336z" />
<glyph unicode="&#xa3;" horiz-adv-x="1290" d="M90 0v123h154v457h-154v122h154v252q0 212 131 340q132 129 348 129q197 0 325.5 -109t151.5 -294h-143q-19 129 -108.5 203.5t-225.5 74.5q-152 0 -245 -94.5t-93 -249.5v-252h489v-122h-489v-457h799v-123h-1094z" />
<glyph unicode="&#xa5;" horiz-adv-x="1359" d="M31 1393h162l487 -760l489 760h162l-549 -854h351v-109h-377v-137h377v-109h-377v-184h-148v184h-381v109h381v137h-381v109h353z" />
<glyph unicode="&#xa8;" d="M324 1251q0 41 29 70t71 29q41 0 70.5 -29t29.5 -70t-29.5 -69.5t-70.5 -28.5q-43 0 -71.5 28.5t-28.5 69.5zM707 1251q0 41 28.5 70t71.5 29q41 0 70.5 -29t29.5 -70t-29.5 -69.5t-70.5 -28.5q-43 0 -71.5 28.5t-28.5 69.5z" />
<glyph unicode="&#xa9;" horiz-adv-x="1759" d="M135 696q0 308 219 518q218 209 527 209q308 0 526 -209q219 -210 219 -518t-219 -518q-218 -209 -526 -209q-309 0 -527 209q-219 210 -219 518zM238 696q0 -264 188 -446q191 -182 453 -182q261 0 452 182t191 446q0 265 -191 447t-452 182q-262 0 -453 -182 q-188 -182 -188 -447zM504 694q0 161 108 269q111 108 269 108q130 0 227.5 -74t126.5 -196h-113q-23 74 -90.5 121t-152.5 47q-112 0 -189 -80q-78 -81 -78 -195q0 -113 78 -194q77 -80 189 -80q85 0 152.5 47t90.5 121h113q-29 -122 -126.5 -196.5t-227.5 -74.5 q-160 0 -269 109q-108 108 -108 268z" />
<glyph unicode="&#xab;" horiz-adv-x="878" d="M92 516l223 303h140l-224 -303l224 -303h-140zM422 516l225 303h139l-223 -303l223 -303h-139z" />
<glyph unicode="&#xad;" horiz-adv-x="1153" d="M240 485v142h673v-142h-673z" />
<glyph unicode="&#xae;" horiz-adv-x="1134" d="M84 950q0 199 141 334q143 137 342 137q197 0 340 -137q144 -138 144 -334q0 -199 -144 -334q-141 -135 -340 -135q-198 0 -342 135q-141 135 -141 334zM170 950q0 -162 117 -276q121 -115 280 -115t277 115q119 113 119 276q0 166 -119 279q-117 114 -277 114t-280 -114 q-117 -114 -117 -279zM401 729v461h193q74 0 122 -43.5t48 -110.5q0 -55 -34 -94t-91 -51l137 -162h-84l-131 158h-94v-158h-66zM467 948h125q45 0 74.5 24.5t29.5 65.5q0 38 -30 64t-74 26h-125v-180z" />
<glyph unicode="&#xb4;" d="M528 1155l166 291h156l-191 -291h-131z" />
<glyph unicode="&#xb8;" d="M467 -440l94 295h139l-110 -295h-123z" />
<glyph unicode="&#xbb;" horiz-adv-x="878" d="M92 213l223 303l-223 303h139l224 -303l-224 -303h-139zM422 213l225 303l-225 303h141l223 -303l-223 -303h-141z" />
<glyph unicode="&#x2c6;" d="M291 1151l252 295h143l252 -295h-137l-187 205l-186 -205h-137z" />
<glyph unicode="&#x2da;" d="M408 1335q0 86 56.5 140.5t147.5 54.5t147 -54.5t56 -140.5t-57.5 -141t-145.5 -55q-91 0 -147.5 55t-56.5 141zM494 1335q0 -51 33.5 -84.5t84.5 -33.5t84 33.5t33 84.5q0 50 -33 83.5t-84 33.5t-84.5 -33.5t-33.5 -83.5z" />
<glyph unicode="&#x2dc;" d="M283 1227q0 91 51 147t119 51q83 -4 125 -32l86 -56q63 -40 105 -20.5t42 82.5h115q0 -71 -29.5 -120.5t-73.5 -68.5t-95.5 -14t-96.5 35l-86 57q-57 38 -102.5 18.5t-45.5 -79.5h-114z" />
<glyph unicode="&#x2000;" horiz-adv-x="835" />
<glyph unicode="&#x2001;" horiz-adv-x="1671" />
<glyph unicode="&#x2002;" horiz-adv-x="835" />
<glyph unicode="&#x2003;" horiz-adv-x="1671" />
<glyph unicode="&#x2004;" horiz-adv-x="557" />
<glyph unicode="&#x2005;" horiz-adv-x="417" />
<glyph unicode="&#x2006;" horiz-adv-x="278" />
<glyph unicode="&#x2007;" horiz-adv-x="278" />
<glyph unicode="&#x2008;" horiz-adv-x="208" />
<glyph unicode="&#x2009;" horiz-adv-x="334" />
<glyph unicode="&#x200a;" horiz-adv-x="92" />
<glyph unicode="&#x2010;" horiz-adv-x="1153" d="M240 485v142h673v-142h-673z" />
<glyph unicode="&#x2011;" horiz-adv-x="1153" d="M240 485v142h673v-142h-673z" />
<glyph unicode="&#x2012;" horiz-adv-x="1153" d="M240 485v142h673v-142h-673z" />
<glyph unicode="&#x2013;" horiz-adv-x="1497" d="M240 487v140h1017v-140h-1017z" />
<glyph unicode="&#x2014;" horiz-adv-x="1941" d="M182 487v140h1577v-140h-1577z" />
<glyph unicode="&#x2018;" horiz-adv-x="376" d="M61 1040q2 20 31 95l111 258h88l-101 -273q61 -17 64 -80q3 -56 -46.5 -79.5t-99.5 0t-47 79.5z" />
<glyph unicode="&#x2019;" horiz-adv-x="399" d="M84 961l102 270q-63 21 -63 80q0 39 27.5 66.5t68.5 27.5t68.5 -27.5t27.5 -66.5q0 -22 -30 -94l-111 -256h-90z" />
<glyph unicode="&#x201a;" horiz-adv-x="399" d="M84 -283l100 273q-61 18 -61 78q0 39 26.5 66.5t67.5 27.5t68.5 -26.5t27.5 -67.5q0 -25 -28 -93l-111 -258h-90z" />
<glyph unicode="&#x201c;" horiz-adv-x="731" d="M84 1040q3 28 31 95l110 258h90l-100 -273q58 -17 61 -80q3 -56 -46.5 -79.5t-99 0t-46.5 79.5zM416 1040q0 27 28 95l111 258h90l-100 -273q61 -18 61 -80q0 -38 -28 -65t-66 -27q-41 0 -68.5 26.5t-27.5 65.5z" />
<glyph unicode="&#x201d;" horiz-adv-x="731" d="M84 961l102 270q-63 21 -63 80q0 39 27.5 66.5t68.5 27.5t68.5 -27.5t27.5 -66.5q0 -22 -30 -94l-111 -256h-90zM416 961l102 270q-63 21 -63 80q0 39 27.5 66.5t68.5 27.5t68.5 -27.5t27.5 -66.5q0 -20 -31 -94l-110 -256h-90z" />
<glyph unicode="&#x201e;" horiz-adv-x="733" d="M84 -283l100 273q-61 18 -61 78q0 39 26.5 66.5t67.5 27.5t68.5 -26.5t27.5 -67.5q0 -25 -28 -93l-111 -258h-90zM420 -283l100 273q-63 18 -63 78q0 39 27.5 66.5t68.5 27.5t68.5 -27.5t27.5 -66.5q0 -8 -3 -19t-6 -19.5t-10.5 -26.5t-11.5 -28l-110 -258h-88z" />
<glyph unicode="&#x2022;" horiz-adv-x="651" d="M90 608q0 94 70 164t164 70q95 0 165 -70q72 -72 72 -164t-72 -164q-69 -69 -165 -69q-95 0 -164 69q-70 70 -70 164z" />
<glyph unicode="&#x2026;" horiz-adv-x="1173" d="M85 68q0 39 26 65q29 29 70 29t67 -29q29 -26 29 -65t-29 -68q-26 -26 -67 -26t-70 26q-26 29 -26 68zM486 68q0 39 26 65q30 29 69 28.5t70 -28.5q30 -28 30 -66.5t-30 -66.5q-30 -27 -69.5 -27t-69.5 27q-26 29 -26 68zM898 68q0 39 26 65q29 29 70 29t67 -29 q29 -26 29 -65t-29 -68q-26 -26 -67 -26t-70 26q-26 29 -26 68z" />
<glyph unicode="&#x202f;" horiz-adv-x="334" />
<glyph unicode="&#x2039;" horiz-adv-x="546" d="M92 516l223 303h140l-224 -303l224 -303h-140z" />
<glyph unicode="&#x203a;" horiz-adv-x="546" d="M92 213l223 303l-223 303h139l224 -303l-224 -303h-139z" />
<glyph unicode="&#x205f;" horiz-adv-x="417" />
<glyph unicode="&#x20ac;" horiz-adv-x="1810" d="M88 471v104h213q-10 72 -10 121q0 12 4 82h-207v105h225q62 238 254 387q195 151 447 151q251 0 432 -143q179 -142 231 -375h-151q-45 174 -181.5 276.5t-330.5 102.5t-344 -111q-148 -109 -203 -288h678l-27 -105h-674q-6 -41 -6 -82q0 -58 13 -121h618l-27 -104h-563 q65 -164 207 -262q143 -98 328 -98q194 0 330.5 102t181.5 276h151q-53 -234 -231 -376q-180 -142 -432 -142q-242 0 -430 138t-258 362h-238z" />
<glyph unicode="&#x2122;" horiz-adv-x="1398" d="M49 1309v82h526v-82h-221v-516h-84v516h-221zM662 793v598h69l248 -398l246 398h69v-598h-86v419l-207 -340h-47l-209 342l3 -421h-86z" />
<glyph unicode="&#x25fc;" horiz-adv-x="942" d="M0 0v942h942v-942h-942z" />
</font>
</defs>
</svg>
