<?xml version="1.0" standalone="no"?>
<!DOCTYPE svg PUBLIC "-//W3C//DTD SVG 1.1//EN" "http://www.w3.org/Graphics/SVG/1.1/DTD/svg11.dtd" >
<svg xmlns="http://www.w3.org/2000/svg">
<metadata></metadata>
<defs>
<font id="camptonregular" horiz-adv-x="1228" >
<font-face units-per-em="2048" ascent="1550" descent="-498" />
<missing-glyph horiz-adv-x="546" />
<glyph horiz-adv-x="0" />
<glyph horiz-adv-x="682" />
<glyph unicode=" "  horiz-adv-x="546" />
<glyph unicode="&#x09;" horiz-adv-x="546" />
<glyph unicode="&#xa0;" horiz-adv-x="546" />
<glyph unicode="!" horiz-adv-x="555" d="M156 100q0 49 35 83t85 34q51 0 87 -34t36 -83q0 -51 -35.5 -84.5t-87.5 -33.5q-50 0 -85 34.5t-35 83.5zM178 1393h199l-17 -990h-167z" />
<glyph unicode="&#x22;" horiz-adv-x="663" d="M98 836v557h160v-557h-160zM406 836v557h161v-557h-161z" />
<glyph unicode="#" horiz-adv-x="1533" d="M76 381v168h264l86 274h-238v168h289l127 404h195l-127 -404h368l127 404h195l-127 -404h221v-168h-272l-86 -274h245v-168h-299l-118 -381h-195l119 381h-369l-119 -381h-194l119 381h-211zM535 549h368l86 274h-368z" />
<glyph unicode="$" horiz-adv-x="1359" d="M113 451h194q24 -144 129.5 -225t276.5 -81q146 0 231.5 62.5t85.5 167.5q0 161 -233 207l-236 45q-389 73 -389 381q0 173 123 284q123 114 326 129v238h170v-244q186 -26 302.5 -131.5t139.5 -286.5h-193q-46 258 -348 258q-142 0 -227.5 -63.5t-85.5 -169.5 q0 -82 63.5 -134t192.5 -79l192 -39q404 -80 404 -371q0 -173 -118.5 -287t-321.5 -137v-233h-170v233q-220 20 -354 145t-154 331z" />
<glyph unicode="%" horiz-adv-x="2222" d="M176 1032q0 174 113 281q113 110 282 110q166 0 279 -110t113 -281q0 -174 -113 -284q-112 -109 -279 -109t-282 109q-113 110 -113 284zM319 1032q0 -109 72.5 -182.5t177.5 -73.5t176.5 73t71.5 183q0 108 -72 180q-71 74 -176 74q-104 0 -178 -74q-72 -72 -72 -180z M563 0l936 1393h137l-936 -1393h-137zM1260 362q0 175 112 281q114 111 281 111q166 0 280 -111q113 -110 113 -281q0 -174 -113 -284q-112 -109 -280 -109q-167 0 -281 111q-112 109 -112 282zM1403 362q0 -110 72 -182q74 -71 176 -71q107 0 178.5 71.5t71.5 181.5 t-72 182t-178 72q-102 0 -176 -71q-72 -72 -72 -183z" />
<glyph unicode="&#x26;" horiz-adv-x="1486" d="M90 391q0 127 71.5 226.5t196.5 154.5q-116 137 -116 275q0 166 116 270q118 106 299 106q173 0 283.5 -103t130.5 -282h-188q-13 103 -74 160t-154 57q-97 0 -158 -59.5t-61 -153.5q0 -92 64 -168t245 -239l21 -19l246 -225l205 303h196l-264 -399l-12 -19l301 -276 h-250l-162 147q-182 -176 -434 -176q-227 0 -365 117q-137 116 -137 303zM274 393q0 -104 91 -180q89 -74 229 -74q168 0 307 121l-299 272q-84 76 -127 119q-201 -86 -201 -258z" />
<glyph unicode="'" horiz-adv-x="356" d="M98 836v557h160v-557h-160z" />
<glyph unicode="(" horiz-adv-x="724" d="M125 621q0 531 418 880l121 -123q-176 -170 -261 -344q-86 -177 -86 -413q0 -233 84 -410t263 -348l-121 -123q-418 346 -418 881z" />
<glyph unicode=")" horiz-adv-x="724" d="M63 -137q179 171 263 348t84 410q0 236 -86 413q-85 174 -261 344l121 123q418 -354 418 -880q0 -535 -418 -881z" />
<glyph unicode="*" horiz-adv-x="827" d="M96 956l211 129l-211 127l56 97l206 -125v219h111v-219l209 125l53 -97l-211 -127l211 -129l-53 -92l-209 123v-221h-111v221l-206 -123z" />
<glyph unicode="+" horiz-adv-x="1411" d="M227 582v174h389v379h181v-379h389v-174h-389v-379h-181v379h-389z" />
<glyph unicode="," horiz-adv-x="417" d="M76 -260l100 248q-76 27 -76 100q0 48 35 81.5t86 33.5t86 -33.5t35 -81.5q0 -35 -39 -115l-110 -233h-117z" />
<glyph unicode="-" horiz-adv-x="1142" d="M227 453v188h688v-188h-688z" />
<glyph unicode="." horiz-adv-x="395" d="M76 88q0 49 35.5 83t85.5 34q51 0 86.5 -34t35.5 -83q0 -51 -35.5 -85t-86.5 -34q-50 0 -85.5 35t-35.5 84z" />
<glyph unicode="/" horiz-adv-x="827" d="M96 -328l533 1823h182l-532 -1823h-183z" />
<glyph unicode="0" horiz-adv-x="1470" d="M125 696q0 325 164 525q163 202 446 202t447 -200t164 -527q0 -326 -164 -526q-165 -201 -447 -201q-281 0 -446 201q-164 203 -164 526zM322 696q0 -246 108 -399q109 -152 305 -152t305 152q109 154 109 399q0 247 -109 398q-108 153 -305 153t-305 -153 q-108 -150 -108 -398z" />
<glyph unicode="1" horiz-adv-x="1046" d="M92 0v162h383v1018l-360 -119v168l444 164h111v-1231h354v-162h-932z" />
<glyph unicode="2" horiz-adv-x="1146" d="M78 997q9 193 135 310q125 116 336 116q218 0 344 -120q129 -120 129 -295q0 -109 -66 -213q-52 -83 -233 -283l-315 -350h636v-162h-925v102l440 492q171 189 209 244q59 92 59 172q0 106 -73 175.5t-197 69.5q-118 0 -195.5 -69.5t-91.5 -188.5h-192z" />
<glyph unicode="3" horiz-adv-x="1150" d="M90 356h189q46 -217 309 -217q130 0 212.5 67t82.5 173q0 108 -83 173.5t-220 65.5h-111v158h111q116 0 187 65.5t71 170.5q0 109 -71 174t-189 65q-106 0 -179.5 -59.5t-85.5 -155.5h-190q15 171 139 277q122 104 313 104q201 0 322 -112q123 -114 123 -291 q0 -207 -170 -309q215 -95 215 -326q0 -178 -133 -293t-344 -115q-216 0 -344.5 102t-153.5 283z" />
<glyph unicode="4" horiz-adv-x="1312" d="M90 295v121l414 977h198l-383 -930h508v432h187v-432h209v-168h-209v-295h-187v295h-737z" />
<glyph unicode="5" horiz-adv-x="1204" d="M78 375h190q59 -238 330 -238q135 0 225 84q88 85 88 211q0 122 -87 197.5t-232 75.5l-402 -3l3 691h835v-174h-657v-347h243q215 0 347 -120q133 -121 133 -314q0 -202 -140 -336q-139 -133 -356 -133t-352 107.5t-168 298.5z" />
<glyph unicode="6" horiz-adv-x="1261" d="M106 455q0 157 119 333l412 605h229l-307 -457q62 4 74 4q229 0 375 -137q147 -135 147 -342q0 -215 -149 -352q-149 -140 -375 -140q-228 0 -377 140q-148 139 -148 346zM297 446q0 -136 94 -227q95 -92 240 -92q144 0 239 92q95 95 95 232q0 136 -95 225 q-95 92 -239 92q-149 0 -240 -82l-6 -8q-88 -116 -88 -232z" />
<glyph unicode="7" horiz-adv-x="1030" d="M29 1210v183h958v-119l-614 -1274h-217l587 1210h-714z" />
<glyph unicode="8" horiz-adv-x="1277" d="M106 387q0 119 65.5 210t186.5 138q-192 94 -192 303q0 168 133 277q132 108 340 108t340 -108q133 -109 133 -277q0 -209 -192 -303q121 -47 186 -138t65 -210q0 -185 -145 -303q-145 -115 -387 -115t-387 115q-146 119 -146 303zM319 399q0 -117 89.5 -192.5 t230.5 -75.5t229 76q90 78 90 192q0 111 -89.5 183.5t-229.5 72.5t-230 -72.5t-90 -183.5zM356 1028q0 -106 79 -173t204 -67t204 67t79 173q0 103 -80.5 172.5t-202.5 69.5t-202.5 -69.5t-80.5 -172.5z" />
<glyph unicode="9" horiz-adv-x="1261" d="M106 932q0 213 148 352q151 139 377 139q229 0 377 -139q147 -138 147 -346q0 -156 -119 -332l-411 -606h-230l310 459q-66 -4 -76 -4q-228 0 -375 135q-148 136 -148 342zM297 942q0 -136 94 -227q96 -90 240 -90q145 0 239 82l7 8q88 116 88 231q0 136 -95 228t-239 92 q-145 0 -240 -95q-94 -91 -94 -229z" />
<glyph unicode=":" horiz-adv-x="395" d="M76 88q0 49 35.5 83t85.5 34q51 0 86.5 -34t35.5 -83q0 -51 -35.5 -85t-86.5 -34q-50 0 -85.5 35t-35.5 84zM76 868q0 49 35.5 83t85.5 34q51 0 86.5 -34t35.5 -83q0 -51 -35.5 -84.5t-86.5 -33.5q-50 0 -85.5 34.5t-35.5 83.5z" />
<glyph unicode=";" horiz-adv-x="403" d="M57 -260l101 248q-74 27 -74 100q0 47 35 81t84 34q51 0 86 -33.5t35 -81.5q0 -35 -39 -115l-111 -233h-117zM80 868q0 49 35.5 83t85.5 34q51 0 87 -34t36 -83q0 -51 -35.5 -84.5t-87.5 -33.5q-50 0 -85.5 34.5t-35.5 83.5z" />
<glyph unicode="&#x3c;" horiz-adv-x="1124" d="M111 526v191l864 403v-190l-658 -309l658 -310v-188z" />
<glyph unicode="=" horiz-adv-x="1439" d="M227 377v174h987v-174h-987zM227 778v176h987v-176h-987z" />
<glyph unicode="&#x3e;" horiz-adv-x="1124" d="M152 123v188l655 310l-655 309v190l864 -403v-191z" />
<glyph unicode="?" horiz-adv-x="1128" d="M82 1040q20 172 140.5 274.5t305.5 102.5q202 0 334 -123q133 -124 133 -311q0 -170 -113 -279.5t-302 -123.5l-9 -174h-147l-16 307h112q126 0 207 75q84 78 84 195t-76.5 192.5t-197.5 75.5q-100 0 -175 -59t-92 -152h-188zM373 100q0 49 35.5 83t85.5 34 q51 0 86.5 -34t35.5 -83q0 -51 -35.5 -84.5t-86.5 -33.5q-50 0 -85.5 34.5t-35.5 83.5z" />
<glyph unicode="@" horiz-adv-x="2035" d="M145 489q0 361 256 605q254 245 625 245q367 0 616 -237q248 -236 248 -596q0 -203 -85 -320.5t-251 -117.5q-196 0 -266 137q-115 -142 -307 -142q-172 0 -291 119q-117 120 -117 295q0 177 117 297q119 119 291 119q154 0 264 -96v71h168v-454q0 -205 141 -205 q95 0 146 78t51 215q0 297 -211 499q-212 203 -514 203q-304 0 -522 -209q-215 -206 -215 -506q0 -303 215 -509q214 -205 514 -205q260 0 465 159l78 -116q-230 -178 -541 -178q-366 0 -621 243q-254 242 -254 606zM745 479q0 -116 77 -190t186 -74q155 0 241 139 q-4 82 -4 97v159q-89 133 -237 133q-109 0 -186 -74t-77 -190z" />
<glyph unicode="A" horiz-adv-x="1531" d="M53 0l621 1401h184l621 -1401h-209l-156 358h-696l-156 -358h-209zM496 539h540l-270 626z" />
<glyph unicode="B" horiz-adv-x="1431" d="M176 0v1393h619q213 0 335.5 -96t122.5 -261q0 -113 -59 -198t-162 -117q139 -26 214 -116.5t75 -223.5q0 -173 -137 -277t-369 -104h-639zM371 172h436q150 0 235.5 63.5t85.5 167.5q0 100 -82.5 154.5t-232.5 54.5h-442v-440zM371 786h389q147 0 227 60t80 166 q0 99 -77 154t-216 55h-403v-435z" />
<glyph unicode="C" horiz-adv-x="1642" d="M125 696q0 308 211 516q212 209 514 209q256 0 436 -149q183 -151 232 -393h-201q-43 166 -166 260t-301 94q-226 0 -377 -154q-151 -151 -151 -383q0 -231 151 -385q151 -151 377 -151q178 0 301 94t166 260h201q-49 -242 -232 -393q-182 -150 -436 -150 q-302 0 -514 209q-211 208 -211 516z" />
<glyph unicode="D" horiz-adv-x="1527" d="M176 0v1393h504q321 0 528 -195q209 -194 209 -493q0 -306 -209 -506q-205 -199 -528 -199h-504zM371 180h309q232 0 383 148q154 151 154 377q0 217 -154 362q-151 145 -383 145h-309v-1032z" />
<glyph unicode="E" horiz-adv-x="1280" d="M176 0v1393h989v-181h-794v-432h712v-180h-712v-420h794v-180h-989z" />
<glyph unicode="F" horiz-adv-x="1212" d="M176 0v1393h973v-181h-778v-469h690v-180h-690v-563h-195z" />
<glyph unicode="G" horiz-adv-x="1691" d="M125 684q0 318 211 526q211 211 520 211q233 0 422 -133q186 -131 244 -364h-209q-52 154 -178 231q-128 78 -277 78q-229 0 -383 -154q-153 -153 -153 -395q0 -218 147 -371q150 -153 377 -153q188 0 313.5 109.5t161.5 295.5h-490v180h699v-49v-696h-156l-14 256 q-159 -285 -514 -285q-308 0 -514 209q-207 210 -207 504z" />
<glyph unicode="H" horiz-adv-x="1511" d="M176 0v1393h195v-617h768v617h196v-1393h-196v596h-768v-596h-195z" />
<glyph unicode="I" horiz-adv-x="546" d="M176 0v1393h195v-1393h-195z" />
<glyph unicode="J" horiz-adv-x="1220" d="M35 420h198q13 -126 100 -197t222 -71q138 0 223.5 98t85.5 264v879h199v-883q0 -255 -139.5 -398t-380.5 -143q-212 0 -350 121.5t-158 329.5z" />
<glyph unicode="K" horiz-adv-x="1447" d="M176 0v1393h195v-781l735 781h235l-579 -627l647 -766h-248l-534 621l-256 -277v-344h-195z" />
<glyph unicode="L" horiz-adv-x="1183" d="M176 0v1393h195v-1217h755v-176h-950z" />
<glyph unicode="M" horiz-adv-x="1738" d="M176 0v1393h143l549 -904l549 904h146v-1393h-197v961l-434 -713h-125l-438 719l4 -967h-197z" />
<glyph unicode="N" horiz-adv-x="1558" d="M176 0v1393h154l856 -1049v1049h196v-1393h-159l-852 1032v-1032h-195z" />
<glyph unicode="O" horiz-adv-x="1699" d="M125 696q0 301 211 512q213 213 514 213q299 0 512 -213t213 -512q0 -301 -213 -514q-211 -211 -512 -211q-303 0 -514 211t-211 514zM322 696q0 -228 151 -385t377 -157q222 0 373 157q153 159 153 385q0 224 -153 383q-154 160 -373 160q-223 0 -377 -160 q-151 -157 -151 -383z" />
<glyph unicode="P" horiz-adv-x="1290" d="M176 0v1393h504q243 0 393 -129t150 -342q0 -222 -156 -357q-157 -133 -412 -133h-284v-432h-195zM371 612h303q160 0 258 85.5t98 224.5q0 130 -98 210t-258 80h-303v-600z" />
<glyph unicode="Q" horiz-adv-x="1699" d="M125 696q0 301 211 512q213 213 514 213q299 0 512 -213t213 -512q0 -179 -80.5 -334.5t-222.5 -255.5l248 -301l-144 -133l-280 342q-116 -43 -246 -43q-303 0 -514 211t-211 514zM322 696q0 -228 151 -385t375 -157t375 157q153 159 153 385q0 224 -153 383 q-154 160 -375 160t-375 -160q-151 -157 -151 -383z" />
<glyph unicode="R" horiz-adv-x="1390" d="M176 0v1393h545q236 0 385 -125t149 -330q0 -163 -93.5 -277t-256.5 -157l422 -504h-240l-405 481h-311v-481h-195zM371 662h344q154 0 251 75t97 201t-98 199q-97 75 -250 75h-344v-550z" />
<glyph unicode="S" horiz-adv-x="1359" d="M113 451h194q23 -147 128 -226.5t278 -79.5q147 0 232 62.5t85 167.5q0 161 -233 207l-236 45q-389 73 -389 381q0 186 139 301q138 114 369 114q220 0 373 -106q158 -106 182 -320h-195q-46 258 -348 258q-141 0 -227 -63.5t-86 -169.5q0 -82 63.5 -134t192.5 -79 l194 -39q202 -41 302 -130.5t100 -240.5q0 -189 -146 -311q-144 -117 -383 -117q-254 0 -411.5 127.5t-177.5 352.5z" />
<glyph unicode="T" horiz-adv-x="1312" d="M57 1212v181h1198v-181h-501v-1212h-195v1212h-502z" />
<glyph unicode="U" horiz-adv-x="1519" d="M156 604v789h194v-789q0 -200 113 -325q115 -127 297 -127q180 0 295 127q114 126 114 325v789h195v-789q0 -286 -166 -461q-165 -174 -438 -174t-438 174q-166 175 -166 461z" />
<glyph unicode="V" horiz-adv-x="1552" d="M49 1393h215l512 -1139l514 1139h213l-637 -1401h-180z" />
<glyph unicode="W" horiz-adv-x="2193" d="M76 1393h207l358 -1100l373 1100h168l370 -1100l361 1100h205l-469 -1401h-193l-358 1052l-361 -1052h-190z" />
<glyph unicode="X" horiz-adv-x="1363" d="M41 0l510 690l-496 703h238l389 -547l387 547h240l-498 -703l512 -690h-227l-414 545l-414 -545h-227z" />
<glyph unicode="Y" horiz-adv-x="1386" d="M27 1393h217l448 -721l451 721h217l-567 -910v-483h-199v483z" />
<glyph unicode="Z" horiz-adv-x="1339" d="M109 0v96l825 1118h-799v179h1082v-97l-803 -1118h811v-178h-1116z" />
<glyph unicode="[" horiz-adv-x="714" d="M154 -264v1759h477v-180h-289v-1399h289v-180h-477z" />
<glyph unicode="\" horiz-adv-x="827" d="M57 1495h181l532 -1823h-180z" />
<glyph unicode="]" horiz-adv-x="714" d="M66 -84h288v1399h-288v180h477v-1759h-477v180z" />
<glyph unicode="^" horiz-adv-x="825" d="M55 909l273 484h170l272 -484h-174l-182 342l-185 -342h-174z" />
<glyph unicode="_" horiz-adv-x="1314" d="M76 -233h1163v-166h-1163v166z" />
<glyph unicode="`" d="M408 1446h208l160 -299h-172z" />
<glyph unicode="a" horiz-adv-x="1259" d="M109 477q0 213 141 357q144 147 346 147q186 0 319 -109v84h189v-956h-189v84q-133 -109 -319 -109q-203 0 -346 146q-141 144 -141 356zM297 477q0 -136 94 -237t232 -101q186 0 292 154v371q-105 153 -292 153q-139 0 -232 -100q-94 -101 -94 -240z" />
<glyph unicode="b" horiz-adv-x="1259" d="M156 0v1454h188v-582q133 109 320 109q202 0 346 -147q143 -143 143 -355q0 -210 -143 -356q-146 -146 -346 -146q-187 0 -320 109v-86h-188zM344 295q108 -156 293 -156q137 0 231 101q97 105 97 239q0 136 -97 238q-93 100 -231 100q-186 0 -293 -155v-367z" />
<glyph unicode="c" horiz-adv-x="1179" d="M109 477q0 216 143 359q145 145 360 145q177 0 303 -102q129 -102 156 -263h-192q-20 88 -92.5 140.5t-174.5 52.5q-139 0 -229 -96q-86 -95 -86 -236q0 -140 86 -235q89 -95 229 -95q102 0 174.5 52t92.5 139h192q-26 -159 -156 -262q-125 -101 -303 -101 q-216 0 -360 144q-143 143 -143 358z" />
<glyph unicode="d" horiz-adv-x="1259" d="M109 479q0 211 141 355q144 147 346 147q192 0 319 -109v582h189v-1454h-189v86q-127 -109 -319 -109q-203 0 -346 146q-141 144 -141 356zM297 479q0 -138 94 -239t232 -101q183 0 292 154v371q-105 153 -292 153q-139 0 -232 -100q-94 -98 -94 -238z" />
<glyph unicode="e" horiz-adv-x="1183" d="M109 477q0 216 139 361q140 143 362 143q201 0 334 -139q130 -136 133 -355q0 -45 -4 -81l-4 2v-2h-774q21 -122 106 -196.5t215 -74.5q170 0 234 119h203q-41 -128 -161.5 -203.5t-281.5 -75.5q-221 0 -362 144q-139 145 -139 358zM295 547h592q-14 125 -90.5 198.5 t-194.5 73.5q-125 0 -206.5 -74t-100.5 -198z" />
<glyph unicode="f" horiz-adv-x="856" d="M8 799v157h275v211q0 176 100 279q100 106 264 106q103 0 209 -28l-27 -164q-91 18 -147 18q-96 0 -153.5 -58.5t-57.5 -152.5v-211h381v-157h-381v-799h-188v799h-275z" />
<glyph unicode="g" horiz-adv-x="1265" d="M106 498q0 213 138 354t344 141q194 0 327 -112v75h189v-970q0 -217 -135 -346q-132 -129 -348 -129q-195 0 -326 104q-136 108 -156 272h191q17 -94 95 -150t196 -56q134 0 214 82.5t80 222.5v141q-138 -111 -327 -111q-203 0 -342 142q-140 143 -140 340zM295 498 q0 -124 92 -224q93 -96 227 -96q192 0 301 160v334q-109 157 -301 157q-139 0 -229 -96t-90 -235z" />
<glyph unicode="h" horiz-adv-x="1206" d="M156 0v1454h188v-594q139 127 324 127t299 -123q114 -120 114 -323v-541h-186v530q0 135 -70.5 211t-193.5 76q-160 0 -287 -160v-657h-188z" />
<glyph unicode="i" horiz-adv-x="544" d="M150 1313q0 51 34 85t88 34q51 0 87 -34t36 -85t-36 -85t-87 -34q-54 0 -88 34t-34 85zM180 0v956h187v-956h-187z" />
<glyph unicode="j" horiz-adv-x="530" d="M-47 -215q119 6 165 56t46 173v942h188v-919q0 -219 -87 -317t-298 -99zM134 1312.5q0 51.5 36 84.5q36 35 86 35h1q50 -1 87 -35q36 -34 36 -85t-36 -85q-35 -34 -87 -34t-87 34q-36 34 -36 85.5z" />
<glyph unicode="k" horiz-adv-x="1165" d="M164 0v1454h188v-967l479 469h240l-399 -399l465 -557h-244l-354 426l-187 -186v-240h-188z" />
<glyph unicode="l" horiz-adv-x="499" d="M156 0v1454h188v-1454h-188z" />
<glyph unicode="m" horiz-adv-x="1857" d="M156 0v956h188v-86q114 117 287 117q206 0 321 -160q154 160 371 160q175 0 289 -123t114 -323v-541h-186v530q0 137 -66.5 212t-187.5 75q-159 0 -262 -158q12 -56 12 -118v-541h-188v530q0 137 -66.5 212t-187.5 75q-145 0 -250 -153v-664h-188z" />
<glyph unicode="n" horiz-adv-x="1206" d="M156 0v956h188v-96q139 127 324 127t299 -123q114 -120 114 -323v-541h-186v530q0 135 -70.5 211t-193.5 76q-160 0 -287 -160v-657h-188z" />
<glyph unicode="o" horiz-adv-x="1232" d="M109 477q0 216 145 361q143 143 364 143q216 0 361 -145q147 -144 147 -359q0 -218 -147 -362q-146 -146 -361 -146t-364 146q-145 145 -145 362zM297 477q0 -142 90 -239q91 -97 231 -97q137 0 228 97q90 101 90 239q0 140 -90 236t-228 96t-231 -96q-90 -96 -90 -236z " />
<glyph unicode="p" horiz-adv-x="1259" d="M156 -498v1454h188v-86q132 111 320 111q202 0 346 -147q143 -143 143 -357q0 -210 -143 -356q-146 -146 -346 -146q-188 0 -320 111v-584h-188zM344 295q108 -156 293 -156q137 0 231 101q97 105 97 237q0 137 -95 240q-93 100 -233 100q-186 0 -293 -155v-367z" />
<glyph unicode="q" horiz-adv-x="1259" d="M109 477q0 213 141 357q144 147 346 147q186 0 319 -109v84h189v-1454h-189v582q-133 -109 -319 -109q-203 0 -346 146q-141 144 -141 356zM297 477q0 -136 94 -237t232 -101q186 0 292 154v371q-105 153 -292 153q-139 0 -232 -100q-94 -101 -94 -240z" />
<glyph unicode="r" horiz-adv-x="761" d="M156 0v956h188v-141q141 164 361 164v-178q-228 -6 -361 -189v-612h-188z" />
<glyph unicode="s" horiz-adv-x="1062" d="M90 311l176 -2q37 -186 275 -186q103 0 165 38t62 101q0 101 -141 125l-213 37q-285 50 -285 266q0 134 107.5 214.5t285.5 80.5q159 0 283 -74q122 -73 137 -237l-174 -2q-10 81 -75 123.5t-169 42.5q-97 0 -153 -36.5t-56 -94.5q0 -102 162 -129l185 -31 q286 -50 286 -271q0 -141 -113.5 -224t-299.5 -83q-191 0 -309 86.5t-136 255.5z" />
<glyph unicode="t" horiz-adv-x="897" d="M8 799v157h236v353h188v-353h359v-157h-359v-443q0 -213 199 -213q74 0 160 25l28 -162q-121 -37 -223 -37q-168 0 -260 101t-92 286v443h-236z" />
<glyph unicode="u" horiz-adv-x="1206" d="M125 418v538h188v-528q0 -136 70 -211.5t192 -75.5q165 0 287 158v657h189v-956h-189v94q-137 -125 -323 -125t-301 121q-113 122 -113 328z" />
<glyph unicode="v" horiz-adv-x="1177" d="M57 956h199l334 -716l332 716h200l-448 -956h-168z" />
<glyph unicode="w" horiz-adv-x="1609" d="M57 956h203l238 -659l225 659h162l225 -659l240 659h202l-358 -956h-168l-221 653l-221 -653h-168z" />
<glyph unicode="x" horiz-adv-x="1114" d="M53 0l377 481l-373 477h230l270 -340l268 340h232l-375 -477l379 -481h-225l-279 350l-278 -350h-226z" />
<glyph unicode="y" horiz-adv-x="1243" d="M47 958h203l377 -780l348 780h199l-648 -1454h-198l202 455z" />
<glyph unicode="z" horiz-adv-x="1013" d="M86 0v92l571 707h-553v157h824v-104l-563 -694h563v-158h-842z" />
<glyph unicode="{" horiz-adv-x="727" d="M72 541v166q110 0 151 37.5t41 142.5v272q0 162 105 264q106 103 274 103v-183q-86 0 -138 -51t-52 -133v-276q0 -117 -32.5 -174t-119.5 -86q86 -29 119 -86.5t33 -171.5v-277q0 -84 51.5 -134t138.5 -50v-183q-170 0 -274.5 100.5t-104.5 266.5v270q0 107 -41 145 t-151 38z" />
<glyph unicode="|" horiz-adv-x="645" d="M233 -328v1823h179v-1823h-179z" />
<glyph unicode="}" horiz-adv-x="745" d="M102 -96q88 0 140.5 50t52.5 134v277q0 115 31.5 172t117.5 86q-86 29 -117.5 85.5t-31.5 174.5v276q0 82 -53.5 133t-139.5 51v183q169 0 275 -103q106 -100 106 -264v-272q0 -104 41.5 -142t149.5 -38v-166q-108 0 -149.5 -38t-41.5 -145v-270q0 -166 -106 -266 q-104 -101 -275 -101v183z" />
<glyph unicode="~" horiz-adv-x="923" d="M76 604q0 72 24 126.5t63 83.5t85 41t92.5 4t83.5 -32l123 -79q55 -34 95 -12t40 83h166q0 -72 -24 -127.5t-62.5 -84.5t-84.5 -41.5t-92.5 -4.5t-84.5 33l-123 80q-54 34 -94.5 11t-40.5 -81h-166z" />
<glyph unicode="&#xa2;" horiz-adv-x="1179" d="M106 477q0 192 117 330q123 142 303 168v252h170v-252q147 -23 248.5 -120.5t126.5 -238.5h-194q-20 88 -92.5 140.5t-174.5 52.5q-137 0 -227 -96q-88 -94 -88 -236q0 -141 88 -235q89 -95 227 -95q102 0 174.5 52t92.5 139h194q-25 -141 -126 -237t-249 -119v-226h-170 v226q-183 27 -303 165q-117 138 -117 330z" />
<glyph unicode="&#xa3;" horiz-adv-x="1275" d="M80 0v164h141v409h-141v164h141v207q0 214 135 346q136 133 357 133q202 0 332 -110.5t153 -300.5h-190q-19 113 -98 178t-197 65q-137 0 -220 -85t-83 -226v-207h454v-164h-454v-409h770v-164h-1100z" />
<glyph unicode="&#xa5;" horiz-adv-x="1386" d="M27 1393h217l448 -721l449 721h217l-514 -826h319v-139h-370v-121h370v-141h-370v-166h-199v166h-371v141h371v121h-371v139h318z" />
<glyph unicode="&#xa8;" d="M289 1264q0 51 35 86q37 35 90 35t88 -35q37 -35 37 -86t-37 -86q-35 -35 -88 -35t-90 35q-35 35 -35 86zM692 1264q0 51 35 86q37 35 90 35t88 -35q37 -35 37 -86t-37 -86q-35 -35 -88 -35t-90 35q-35 35 -35 86z" />
<glyph unicode="&#xa9;" horiz-adv-x="1740" d="M125 696q0 308 219 518q218 209 526 209q309 0 527 -209q219 -210 219 -518t-219 -518q-218 -209 -527 -209q-308 0 -526 209q-219 210 -219 518zM258 696q0 -252 180 -426t430 -174t430 174q183 177 183 426t-183 426q-180 174 -430 174t-430 -174t-180 -426zM504 694 q0 155 106 258q108 105 262 105q131 0 227.5 -75t121.5 -196h-150q-19 60 -74 98t-127 38q-93 0 -158 -67t-65 -161q0 -97 64.5 -163t158.5 -66q72 0 127 37.5t74 99.5h150q-25 -121 -121.5 -195.5t-227.5 -74.5q-155 0 -262 104q-106 103 -106 258z" />
<glyph unicode="&#xab;" horiz-adv-x="901" d="M76 516l211 307h184l-211 -307l211 -307h-184zM430 516l209 307h184l-209 -307l209 -307h-184z" />
<glyph unicode="&#xad;" horiz-adv-x="1142" d="M227 453v188h688v-188h-688z" />
<glyph unicode="&#xae;" horiz-adv-x="1146" d="M76 934q0 205 145 344q147 141 352 141q204 0 351 -141t147 -344q0 -206 -147 -344q-145 -139 -351 -139q-204 0 -352 139q-145 139 -145 344zM184 934q0 -157 115 -272q114 -111 272 -111q159 0 273 111q117 114 117 272q0 160 -117 274q-113 113 -273 113 q-159 0 -272 -113q-115 -115 -115 -274zM410 721v448h188q74 0 123 -43t49 -110q0 -105 -106 -139l120 -156h-102l-113 145h-80v-145h-79zM489 940h107q41 0 65.5 21.5t24.5 56.5q0 33 -24.5 54.5t-65.5 21.5h-107v-154z" />
<glyph unicode="&#xb4;" d="M504 1147l160 299h208l-196 -299h-172z" />
<glyph unicode="&#xb8;" d="M446 -436l93 307h186l-115 -307h-164z" />
<glyph unicode="&#xbb;" horiz-adv-x="901" d="M78 209l209 307l-209 307h182l211 -307l-211 -307h-182zM430 209l209 307l-209 307h184l209 -307l-209 -307h-184z" />
<glyph unicode="&#x2c6;" d="M274 1137l248 305h185l247 -305h-178l-160 184l-161 -184h-181z" />
<glyph unicode="&#x2da;" d="M393 1333q0 91 60 148t157 57t157 -57t60 -148t-60.5 -149t-156.5 -58q-94 0 -155.5 58.5t-61.5 148.5zM504 1333q-3 -65 51.5 -92.5t109.5 0t52 92.5q-2 44 -32.5 74.5t-74.5 30.5t-74 -30t-32 -75z" />
<glyph unicode="&#x2dc;" d="M266 1208q0 80 33 135t82 76t104.5 18t100.5 -32l90 -57q57 -33 91 -14.5t34 71.5h151q0 -80 -32 -135.5t-80 -76.5t-103 -17.5t-102 32.5l-92 58q-54 32 -88.5 13.5t-34.5 -71.5h-154z" />
<glyph unicode="&#x2000;" horiz-adv-x="829" />
<glyph unicode="&#x2001;" horiz-adv-x="1659" />
<glyph unicode="&#x2002;" horiz-adv-x="829" />
<glyph unicode="&#x2003;" horiz-adv-x="1659" />
<glyph unicode="&#x2004;" horiz-adv-x="553" />
<glyph unicode="&#x2005;" horiz-adv-x="414" />
<glyph unicode="&#x2006;" horiz-adv-x="276" />
<glyph unicode="&#x2007;" horiz-adv-x="276" />
<glyph unicode="&#x2008;" horiz-adv-x="207" />
<glyph unicode="&#x2009;" horiz-adv-x="331" />
<glyph unicode="&#x200a;" horiz-adv-x="92" />
<glyph unicode="&#x2010;" horiz-adv-x="1142" d="M227 453v188h688v-188h-688z" />
<glyph unicode="&#x2011;" horiz-adv-x="1142" d="M227 453v188h688v-188h-688z" />
<glyph unicode="&#x2012;" horiz-adv-x="1142" d="M227 453v188h688v-188h-688z" />
<glyph unicode="&#x2013;" horiz-adv-x="1470" d="M227 455v188h1018v-188h-1018z" />
<glyph unicode="&#x2014;" horiz-adv-x="2021" d="M190 455v188h1641v-188h-1641z" />
<glyph unicode="&#x2018;" horiz-adv-x="403" d="M61 1044q0 33 39 113l111 234h115l-99 -248q74 -27 74 -99q0 -47 -35 -80.5t-84 -33.5q-51 0 -86 33.5t-35 80.5z" />
<glyph unicode="&#x2019;" horiz-adv-x="417" d="M76 944l100 248q-76 27 -76 98q0 49 35 83t86 34t86 -34t35 -83q0 -32 -39 -112l-110 -234h-117z" />
<glyph unicode="&#x201a;" horiz-adv-x="417" d="M76 -260l100 248q-76 27 -76 100q0 47 35 81t84 34q51 0 86 -33.5t35 -81.5q0 -39 -37 -115l-110 -233h-117z" />
<glyph unicode="&#x201c;" horiz-adv-x="770" d="M76 1044q0 33 39 113l110 234h117l-100 -248q75 -26 75 -99q0 -47 -35 -80.5t-85 -33.5q-51 0 -86 33.5t-35 80.5zM428 1044q0 33 39 113l111 234h116l-100 -248q76 -27 76 -99q0 -47 -35 -80.5t-86 -33.5t-86 33.5t-35 80.5z" />
<glyph unicode="&#x201d;" horiz-adv-x="770" d="M76 944l100 248q-76 27 -76 98q0 49 35 83t86 34t86 -34t35 -83q0 -32 -39 -112l-110 -234h-117zM430 944l98 248q-73 27 -73 98q0 49 34 83t84 34q51 0 86 -34t35 -83q0 -32 -39 -112l-110 -234h-115z" />
<glyph unicode="&#x201e;" horiz-adv-x="774" d="M76 -260l100 248q-76 27 -76 100q0 47 35 81t84 34q51 0 86 -33.5t35 -81.5q0 -39 -37 -115l-110 -233h-117zM434 -260l98 248q-73 27 -73 100q0 47 35 81t84 34q51 0 85.5 -33.5t34.5 -81.5q0 -35 -39 -115l-110 -233h-115z" />
<glyph unicode="&#x2022;" horiz-adv-x="663" d="M80.5 608q-0.5 101 73.5 174q76 76 178 76q100 0 176 -76q75 -75 75 -175t-75 -175q-75 -74 -176 -74t-176 74q-75 75 -75.5 176z" />
<glyph unicode="&#x2026;" horiz-adv-x="1261" d="M76 88q0 49 35.5 83t85.5 34q51 0 86.5 -34t35.5 -83q0 -51 -35.5 -85t-86.5 -34q-50 0 -85.5 35t-35.5 84zM504 88q0 49 35 83t86 34t85.5 -33.5t34.5 -83.5q0 -51 -34.5 -85t-85.5 -34t-86 34t-35 85zM942 88q0 49 35.5 83t85.5 34q51 0 87 -34t36 -83q0 -51 -36 -85 t-87 -34q-50 0 -85.5 35t-35.5 84z" />
<glyph unicode="&#x202f;" horiz-adv-x="331" />
<glyph unicode="&#x2039;" horiz-adv-x="548" d="M78 516l209 307h184l-211 -307l211 -307h-184z" />
<glyph unicode="&#x203a;" horiz-adv-x="548" d="M78 209l209 307l-209 307h182l211 -307l-211 -307h-182z" />
<glyph unicode="&#x205f;" horiz-adv-x="414" />
<glyph unicode="&#x20ac;" horiz-adv-x="1789" d="M86 455v137h193q-7 61 -7 104q0 52 2 66h-188v137h213q64 233 258 377q195 145 440 145q259 0 439 -149q182 -150 231 -393h-203q-41 166 -165 260t-302 94q-169 0 -301.5 -90.5t-189.5 -243.5h627l-37 -137h-621q-4 -54 -4 -66q0 -65 8 -104h576l-33 -137h-500 q63 -137 190 -216t285 -79q178 0 302 94t165 260h203q-49 -243 -231 -393t-439 -150q-235 0 -424 133q-188 132 -262 351h-225z" />
<glyph unicode="&#x2122;" horiz-adv-x="1409" d="M53 1286v105h533v-105h-211v-493h-109v493h-213zM662 793v598h83l240 -375l240 375h86v-598h-111v370l-184 -295h-60l-188 299l2 -374h-108z" />
<glyph unicode="&#x25fc;" horiz-adv-x="962" d="M0 0v963h963v-963h-963z" />
</font>
</defs>
</svg>
